<svg width="38" height="87" viewBox="0 0 38 87" fill="none" xmlns="http://www.w3.org/2000/svg">
    <g filter="url(#filter0_dd)">
        <path
            d="M13 11.4542V17H25V5.64712C25 4.89679 24.2044 4.41373 23.5386 4.7599L14.0773 9.67981C13.4153 10.024 13 10.7081 13 11.4542Z"
            fill="#181818" />
        <path
            d="M13 11.4542V17H25V5.64712C25 4.89679 24.2044 4.41373 23.5386 4.7599L14.0773 9.67981C13.4153 10.024 13 10.7081 13 11.4542Z"
            fill="url(#paint0_linear)" />
        <g filter="url(#filter1_dd)">
            <path
                d="M8 42.1868V52H30V42.1868C30 40.0984 29.455 38.0463 28.4189 36.2331L28.1081 35.6892C26.7266 33.2716 26 30.5354 26 27.751V17H12V27.751C12 30.5354 11.2734 33.2716 9.89189 35.6892L9.58108 36.2331C8.54498 38.0463 8 40.0984 8 42.1868Z"
                fill="url(#paint1_linear)" />
            <path
                d="M29.5 51.5H8.5V42.1868C8.5 40.1855 9.02228 38.2188 10.0152 36.4812L10.326 35.9373C11.7506 33.4441 12.5 30.6224 12.5 27.751V17.5H25.5V27.751C25.5 30.6224 26.2494 33.4441 27.674 35.9373L27.9848 36.4812C28.9777 38.2188 29.5 40.1855 29.5 42.1868V51.5Z"
                stroke="white" stroke-opacity="0.04" />
            <rect x="8" y="52" width="22" height="35" fill="url(#paint2_linear)" />
            <rect x="8" y="52" width="22" height="9" fill="#181818" />
            <rect x="8" y="52" width="22" height="9" fill="url(#paint3_linear)" />
        </g>
    </g>
    <defs>
        <filter id="filter0_dd" x="0" y="0.645775" width="38" height="98.3542" filterUnits="userSpaceOnUse"
            color-interpolation-filters="sRGB">
            <feFlood flood-opacity="0" result="BackgroundImageFix" />
            <feColorMatrix in="SourceAlpha" type="matrix" values="0 0 0 0 0 0 0 0 0 0 0 0 0 0 0 0 0 0 127 0" />
            <feOffset dy="2" />
            <feGaussianBlur stdDeviation="2" />
            <feColorMatrix type="matrix" values="0 0 0 0 0 0 0 0 0 0 0 0 0 0 0 0 0 0 0.16 0" />
            <feBlend mode="normal" in2="BackgroundImageFix" result="effect1_dropShadow" />
            <feColorMatrix in="SourceAlpha" type="matrix" values="0 0 0 0 0 0 0 0 0 0 0 0 0 0 0 0 0 0 127 0" />
            <feOffset dy="4" />
            <feGaussianBlur stdDeviation="4" />
            <feColorMatrix type="matrix" values="0 0 0 0 0 0 0 0 0 0 0 0 0 0 0 0 0 0 0.16 0" />
            <feBlend mode="normal" in2="effect1_dropShadow" result="effect2_dropShadow" />
            <feBlend mode="normal" in="SourceGraphic" in2="effect2_dropShadow" result="shape" />
        </filter>
        <filter id="filter1_dd" x="0" y="13" width="38" height="86" filterUnits="userSpaceOnUse"
            color-interpolation-filters="sRGB">
            <feFlood flood-opacity="0" result="BackgroundImageFix" />
            <feColorMatrix in="SourceAlpha" type="matrix" values="0 0 0 0 0 0 0 0 0 0 0 0 0 0 0 0 0 0 127 0" />
            <feOffset dy="2" />
            <feGaussianBlur stdDeviation="2" />
            <feColorMatrix type="matrix" values="0 0 0 0 0 0 0 0 0 0 0 0 0 0 0 0 0 0 0.06 0" />
            <feBlend mode="normal" in2="BackgroundImageFix" result="effect1_dropShadow" />
            <feColorMatrix in="SourceAlpha" type="matrix" values="0 0 0 0 0 0 0 0 0 0 0 0 0 0 0 0 0 0 127 0" />
            <feOffset dy="4" />
            <feGaussianBlur stdDeviation="4" />
            <feColorMatrix type="matrix" values="0 0 0 0 0 0 0 0 0 0 0 0 0 0 0 0 0 0 0.06 0" />
            <feBlend mode="normal" in2="effect1_dropShadow" result="effect2_dropShadow" />
            <feBlend mode="normal" in="SourceGraphic" in2="effect2_dropShadow" result="shape" />
        </filter>
        <linearGradient id="paint0_linear" x1="13" y1="11.2222" x2="25" y2="11.2222" gradientUnits="userSpaceOnUse">
            <stop stop-color="#B9B9B9" />
            <stop offset="0.497299" stop-color="#FBFBFB" />
            <stop offset="1" stop-color="#A8A8A8" />
        </linearGradient>
        <linearGradient id="paint1_linear" x1="8" y1="35.2955" x2="30" y2="35.2955" gradientUnits="userSpaceOnUse">
            <stop stop-color="#2E2E2E" />
            <stop offset="0.046875" stop-color="#393939" />
            <stop offset="0.145833" stop-color="#212121" />
            <stop offset="0.734375" stop-color="#373737" />
            <stop offset="0.90625" stop-color="#2C2C2C" />
            <stop offset="1" stop-color="#363636" />
        </linearGradient>
        <linearGradient id="paint2_linear" x1="8" y1="70.2955" x2="30" y2="70.2955" gradientUnits="userSpaceOnUse">
            <stop stop-color="#2E2E2E" />
            <stop offset="0.046875" stop-color="#393939" />
            <stop offset="0.145833" stop-color="#212121" />
            <stop offset="0.734375" stop-color="#373737" />
            <stop offset="0.90625" stop-color="#2C2C2C" />
            <stop offset="1" stop-color="#363636" />
        </linearGradient>
        <linearGradient id="paint3_linear" x1="8" y1="57" x2="30" y2="57" gradientUnits="userSpaceOnUse">
            <stop stop-color="#B9B9B9" />
            <stop offset="0.497299" stop-color="#FBFBFB" />
            <stop offset="1" stop-color="#A8A8A8" />
        </linearGradient>
    </defs>
</svg>
