<svg width="38" height="87" viewBox="0 0 38 87" fill="none" xmlns="http://www.w3.org/2000/svg">
<g filter="url(#filter0_dd)">
<rect x="8" y="54" width="22" height="33" fill="url(#paint0_linear)"/>
<path d="M8 47.3541V52H30V47.3541C30 45.4119 29.7643 43.4769 29.2979 41.5916L20 3.99998H18L8.70207 41.5916C8.23575 43.4769 8 45.4119 8 47.3541Z" fill="url(#paint1_linear)"/>
<path d="M29.5 51.5H8.5V47.3541C8.5 45.4524 8.73084 43.5577 9.18745 41.7116L18.3914 4.49998H19.6086L28.8126 41.7116C29.2692 43.5577 29.5 45.4524 29.5 47.3541V51.5Z" stroke="white" stroke-opacity="0.05"/>
<mask id="mask0" mask-type="alpha" maskUnits="userSpaceOnUse" x="8" y="4" width="22" height="48">
<path d="M29.5 51.5H8.5V45.4048C8.5 44.7978 8.57367 44.1931 8.7194 43.604L18.2453 5.09078C18.3311 4.74375 18.6425 4.49998 19 4.49998C19.3575 4.49998 19.6689 4.74375 19.7547 5.09078L29.2806 43.604C29.4263 44.1931 29.5 44.7978 29.5 45.4048V51.5Z" fill="url(#paint2_linear)" stroke="white"/>
</mask>
<g mask="url(#mask0)">
<rect x="14" y="2.99998" width="11" height="11" fill="#181818"/>
<rect x="14" y="2.99998" width="11" height="11" fill="url(#paint3_linear)"/>
</g>
</g>
<rect x="8" y="52" width="22" height="2" fill="#181818"/>
<rect x="8" y="52" width="22" height="2" fill="url(#paint4_linear)"/>
<defs>
<filter id="filter0_dd" x="0" y="-2.28882e-05" width="38" height="99" filterUnits="userSpaceOnUse" color-interpolation-filters="sRGB">
<feFlood flood-opacity="0" result="BackgroundImageFix"/>
<feColorMatrix in="SourceAlpha" type="matrix" values="0 0 0 0 0 0 0 0 0 0 0 0 0 0 0 0 0 0 127 0"/>
<feOffset dy="2"/>
<feGaussianBlur stdDeviation="2"/>
<feColorMatrix type="matrix" values="0 0 0 0 0 0 0 0 0 0 0 0 0 0 0 0 0 0 0.16 0"/>
<feBlend mode="normal" in2="BackgroundImageFix" result="effect1_dropShadow"/>
<feColorMatrix in="SourceAlpha" type="matrix" values="0 0 0 0 0 0 0 0 0 0 0 0 0 0 0 0 0 0 127 0"/>
<feOffset dy="4"/>
<feGaussianBlur stdDeviation="4"/>
<feColorMatrix type="matrix" values="0 0 0 0 0 0 0 0 0 0 0 0 0 0 0 0 0 0 0.16 0"/>
<feBlend mode="normal" in2="effect1_dropShadow" result="effect2_dropShadow"/>
<feBlend mode="normal" in="SourceGraphic" in2="effect2_dropShadow" result="shape"/>
</filter>
<linearGradient id="paint0_linear" x1="8" y1="71.25" x2="30" y2="71.25" gradientUnits="userSpaceOnUse">
<stop stop-color="#2E2E2E"/>
<stop offset="0.046875" stop-color="#393939"/>
<stop offset="0.145833" stop-color="#212121"/>
<stop offset="0.734375" stop-color="#373737"/>
<stop offset="0.90625" stop-color="#2C2C2C"/>
<stop offset="1" stop-color="#363636"/>
</linearGradient>
<linearGradient id="paint1_linear" x1="8" y1="29.0909" x2="30" y2="29.0909" gradientUnits="userSpaceOnUse">
<stop stop-color="#2E2E2E"/>
<stop offset="0.046875" stop-color="#393939"/>
<stop offset="0.145833" stop-color="#212121"/>
<stop offset="0.734375" stop-color="#373737"/>
<stop offset="0.90625" stop-color="#2C2C2C"/>
<stop offset="1" stop-color="#363636"/>
</linearGradient>
<linearGradient id="paint2_linear" x1="8" y1="29.0909" x2="30" y2="40.9999" gradientUnits="userSpaceOnUse">
<stop stop-color="#2E2E2E"/>
<stop offset="0.046875" stop-color="#393939"/>
<stop offset="0.145833" stop-color="#212121"/>
<stop offset="0.734375" stop-color="#373737"/>
<stop offset="0.90625" stop-color="#2C2C2C"/>
<stop offset="1" stop-color="#363636"/>
</linearGradient>
<linearGradient id="paint3_linear" x1="14" y1="9.11109" x2="25" y2="9.11109" gradientUnits="userSpaceOnUse">
<stop stop-color="#B9B9B9"/>
<stop offset="0.497299" stop-color="#FBFBFB"/>
<stop offset="1" stop-color="#A8A8A8"/>
</linearGradient>
<linearGradient id="paint4_linear" x1="8" y1="53.1111" x2="30" y2="53.1111" gradientUnits="userSpaceOnUse">
<stop stop-color="#B9B9B9"/>
<stop offset="0.497299" stop-color="#FBFBFB"/>
<stop offset="1" stop-color="#A8A8A8"/>
</linearGradient>
</defs>
</svg>
