<svg width="51" height="87" viewBox="0 0 51 87" fill="none" xmlns="http://www.w3.org/2000/svg">
<g filter="url(#filter0_dd)">
<g filter="url(#filter1_ddii)">
<path d="M8 6C8 4.89543 8.89543 4 10 4H41C42.1046 4 43 4.89543 43 6V87H8V6Z" fill="white"/>
<path d="M8 6C8 4.89543 8.89543 4 10 4H41C42.1046 4 43 4.89543 43 6V87H8V6Z" fill="url(#paint0_linear)"/>
</g>
<path d="M20 81H10L10 82H20V81Z" fill="#909090"/>
<path d="M10 76H13L13 77H10L10 76Z" fill="#909090"/>
<path d="M13 71H10L10 72H13V71Z" fill="#909090"/>
<path d="M10 66H13V67H10L10 66Z" fill="#909090"/>
<path d="M13 61H10L10 62H13V61Z" fill="#909090"/>
<path d="M10 56H20V57H10L10 56Z" fill="#909090"/>
<path d="M13 51H10L10 52H13V51Z" fill="#909090"/>
<path d="M10 46H13L13 47H10L10 46Z" fill="#909090"/>
<path d="M13 41H10L10 42H13L13 41Z" fill="#909090"/>
<path d="M10 36H13V37H10L10 36Z" fill="#909090"/>
<path d="M20 31H10V32H20V31Z" fill="#909090"/>
<path d="M10 26H13V27H10L10 26Z" fill="#909090"/>
<path d="M13 21H10V22H13L13 21Z" fill="#909090"/>
<path d="M10 16H13L13 17H10L10 16Z" fill="#909090"/>
<path d="M13 11H10L10 12H13L13 11Z" fill="#909090"/>
<path d="M20 6L10 6V7L20 7V6Z" fill="#909090"/>
</g>
<defs>
<filter id="filter0_dd" x="0" y="0" width="51" height="99" filterUnits="userSpaceOnUse" color-interpolation-filters="sRGB">
<feFlood flood-opacity="0" result="BackgroundImageFix"/>
<feColorMatrix in="SourceAlpha" type="matrix" values="0 0 0 0 0 0 0 0 0 0 0 0 0 0 0 0 0 0 127 0"/>
<feOffset dy="2"/>
<feGaussianBlur stdDeviation="2"/>
<feColorMatrix type="matrix" values="0 0 0 0 0 0 0 0 0 0 0 0 0 0 0 0 0 0 0.16 0"/>
<feBlend mode="normal" in2="BackgroundImageFix" result="effect1_dropShadow"/>
<feColorMatrix in="SourceAlpha" type="matrix" values="0 0 0 0 0 0 0 0 0 0 0 0 0 0 0 0 0 0 127 0"/>
<feOffset dy="4"/>
<feGaussianBlur stdDeviation="4"/>
<feColorMatrix type="matrix" values="0 0 0 0 0 0 0 0 0 0 0 0 0 0 0 0 0 0 0.16 0"/>
<feBlend mode="normal" in2="effect1_dropShadow" result="effect2_dropShadow"/>
<feBlend mode="normal" in="SourceGraphic" in2="effect2_dropShadow" result="shape"/>
</filter>
<filter id="filter1_ddii" x="0" y="0" width="51" height="99" filterUnits="userSpaceOnUse" color-interpolation-filters="sRGB">
<feFlood flood-opacity="0" result="BackgroundImageFix"/>
<feColorMatrix in="SourceAlpha" type="matrix" values="0 0 0 0 0 0 0 0 0 0 0 0 0 0 0 0 0 0 127 0"/>
<feOffset dy="2"/>
<feGaussianBlur stdDeviation="2"/>
<feColorMatrix type="matrix" values="0 0 0 0 0 0 0 0 0 0 0 0 0 0 0 0 0 0 0.06 0"/>
<feBlend mode="normal" in2="BackgroundImageFix" result="effect1_dropShadow"/>
<feColorMatrix in="SourceAlpha" type="matrix" values="0 0 0 0 0 0 0 0 0 0 0 0 0 0 0 0 0 0 127 0"/>
<feOffset dy="4"/>
<feGaussianBlur stdDeviation="4"/>
<feColorMatrix type="matrix" values="0 0 0 0 0 0 0 0 0 0 0 0 0 0 0 0 0 0 0.06 0"/>
<feBlend mode="normal" in2="effect1_dropShadow" result="effect2_dropShadow"/>
<feBlend mode="normal" in="SourceGraphic" in2="effect2_dropShadow" result="shape"/>
<feColorMatrix in="SourceAlpha" type="matrix" values="0 0 0 0 0 0 0 0 0 0 0 0 0 0 0 0 0 0 127 0" result="hardAlpha"/>
<feOffset dy="1"/>
<feComposite in2="hardAlpha" operator="arithmetic" k2="-1" k3="1"/>
<feColorMatrix type="matrix" values="0 0 0 0 0 0 0 0 0 0 0 0 0 0 0 0 0 0 0.02 0"/>
<feBlend mode="normal" in2="shape" result="effect3_innerShadow"/>
<feColorMatrix in="SourceAlpha" type="matrix" values="0 0 0 0 0 0 0 0 0 0 0 0 0 0 0 0 0 0 127 0" result="hardAlpha"/>
<feOffset dx="1"/>
<feGaussianBlur stdDeviation="1"/>
<feComposite in2="hardAlpha" operator="arithmetic" k2="-1" k3="1"/>
<feColorMatrix type="matrix" values="0 0 0 0 0 0 0 0 0 0 0 0 0 0 0 0 0 0 0.06 0"/>
<feBlend mode="normal" in2="effect3_innerShadow" result="effect4_innerShadow"/>
</filter>
<linearGradient id="paint0_linear" x1="43" y1="42" x2="8" y2="42" gradientUnits="userSpaceOnUse">
<stop stop-color="#424242"/>
<stop offset="0.0001" stop-color="#434343"/>
<stop offset="0.09375" stop-color="#393939"/>
<stop offset="0.541667" stop-color="#393939"/>
<stop offset="0.578125" stop-color="#2D2D2D"/>
<stop offset="1" stop-color="#2D2D2D"/>
</linearGradient>
</defs>
</svg>
