<svg width="38" height="83" viewBox="0 0 38 83" fill="none" xmlns="http://www.w3.org/2000/svg">
    <path
        d="M13 7.45424V13H25V1.64712C25 0.896788 24.2044 0.413735 23.5386 0.759903L14.0773 5.67981C13.4153 6.02403 13 6.70812 13 7.45424Z"
        fill="#E7686F" />
    <path
        d="M13 7.45424V13H25V1.64712C25 0.896788 24.2044 0.413735 23.5386 0.759903L14.0773 5.67981C13.4153 6.02403 13 6.70812 13 7.45424Z"
        fill="url(#paint0_linear)" />
    <g filter="url(#filter0_dd)">
        <path
            d="M8 38.1868V48H30V38.1868C30 36.0984 29.455 34.0463 28.4189 32.2331L27.5811 30.7669C26.545 28.9537 26 26.9015 26 24.8132V13H12V24.8132C12 26.9016 11.455 28.9537 10.4189 30.7669L9.58108 32.2331C8.54498 34.0463 8 36.0984 8 38.1868Z"
            fill="url(#paint1_linear)" />
        <rect x="8" y="48" width="22" height="35" fill="url(#paint2_linear)" />
        <rect x="8" y="48" width="22" height="9" fill="#181818" />
        <rect x="8" y="48" width="22" height="9" fill="url(#paint3_linear)" />
    </g>
    <defs>
        <linearGradient id="paint0_linear" x1="13" y1="7.22222" x2="25" y2="7.22222" gradientUnits="userSpaceOnUse">
            <stop stop-color="#202020" />
            <stop offset="0.497299" stop-color="#555555" />
            <stop offset="1" stop-color="#363636" />
        </linearGradient>
        <linearGradient id="paint1_linear" x1="8" y1="31.2955" x2="30" y2="31.2955" gradientUnits="userSpaceOnUse">
            <stop stop-color="#DBDBDB" />
            <stop offset="0.0637281" stop-color="#EBEBEB" />
            <stop offset="0.178482" stop-color="#DADADA" />
            <stop offset="0.48833" stop-color="#F6F6F6" />
            <stop offset="0.757139" stop-color="#EFEFEF" />
            <stop offset="1" stop-color="#DDDDDD" />
        </linearGradient>
        <linearGradient id="paint2_linear" x1="8" y1="66.2955" x2="30" y2="66.2955" gradientUnits="userSpaceOnUse">
            <stop stop-color="#DBDBDB" />
            <stop offset="0.0637281" stop-color="#EBEBEB" />
            <stop offset="0.178482" stop-color="#DADADA" />
            <stop offset="0.48833" stop-color="#F6F6F6" />
            <stop offset="0.757139" stop-color="#EFEFEF" />
            <stop offset="1" stop-color="#DDDDDD" />
        </linearGradient>
        <linearGradient id="paint3_linear" x1="8" y1="53" x2="30" y2="53" gradientUnits="userSpaceOnUse">
            <stop stop-color="#1D1D1D" />
            <stop offset="0.497299" stop-color="#585858" />
            <stop offset="1" stop-color="#313131" />
        </linearGradient>
        <filter id="filter0_dd" x="0" y="9" width="38" height="86" filterUnits="userSpaceOnUse"
            color-interpolation-filters="sRGB">
            <feFlood flood-opacity="0" result="BackgroundImageFix" />
            <feColorMatrix in="SourceAlpha" type="matrix" values="0 0 0 0 0 0 0 0 0 0 0 0 0 0 0 0 0 0 127 0" />
            <feOffset dy="2" />
            <feGaussianBlur stdDeviation="2" />
            <feColorMatrix type="matrix" values="0 0 0 0 0 0 0 0 0 0 0 0 0 0 0 0 0 0 0.06 0" />
            <feBlend mode="normal" in2="BackgroundImageFix" result="effect1_dropShadow" />
            <feColorMatrix in="SourceAlpha" type="matrix" values="0 0 0 0 0 0 0 0 0 0 0 0 0 0 0 0 0 0 127 0" />
            <feOffset dy="4" />
            <feGaussianBlur stdDeviation="4" />
            <feColorMatrix type="matrix" values="0 0 0 0 0 0 0 0 0 0 0 0 0 0 0 0 0 0 0.06 0" />
            <feBlend mode="normal" in2="effect1_dropShadow" result="effect2_dropShadow" />
            <feBlend mode="normal" in="SourceGraphic" in2="effect2_dropShadow" result="shape" />
        </filter>
    </defs>
</svg>
