<svg width="38" height="87" viewBox="0 0 38 87" fill="none" xmlns="http://www.w3.org/2000/svg">
    <g filter="url(#filter0_dd)">
        <rect x="8" y="54" width="22" height="33" fill="url(#paint0_linear)"/>
        <path d="M8 47.3541V52H30V47.3541C30 45.412 29.7643 43.477 29.2979 41.5916L20.2401 4.97075C20.0991 4.40054 19.5874 4 19 4C18.4126 4 17.9009 4.40054 17.7599 4.97075L8.70207 41.5916C8.23575 43.477 8 45.412 8 47.3541Z" fill="url(#paint1_linear)"/>
        <mask id="mask0" mask-type="alpha" maskUnits="userSpaceOnUse" x="8" y="4" width="22" height="48">
            <path d="M8 46.3795V52H30V46.3795C30 45.0847 29.8428 43.7947 29.532 42.5378L20.2401 4.97075C20.0991 4.40054 19.5874 4 19 4C18.4126 4 17.9009 4.40054 17.7599 4.97075L8.46805 42.5378C8.15717 43.7947 8 45.0847 8 46.3795Z" fill="url(#paint2_linear)"/>
        </mask>
        <g mask="url(#mask0)">
            <rect x="14" y="3" width="11" height="11" fill="#181818"/>
            <rect x="14" y="3" width="11" height="11" fill="url(#paint3_linear)"/>
        </g>
    </g>
    <rect x="8" y="52" width="22" height="2" fill="#181818"/>
    <rect x="8" y="52" width="22" height="2" fill="url(#paint4_linear)"/>
    <defs>
        <linearGradient id="paint0_linear" x1="8" y1="71.25" x2="30" y2="71.25" gradientUnits="userSpaceOnUse">
            <stop stop-color="#DBDBDB"/>
            <stop offset="0.0637281" stop-color="#EBEBEB"/>
            <stop offset="0.178482" stop-color="#DADADA"/>
            <stop offset="0.48833" stop-color="#F6F6F6"/>
            <stop offset="0.757139" stop-color="#EFEFEF"/>
            <stop offset="1" stop-color="#DDDDDD"/>
        </linearGradient>
        <linearGradient id="paint1_linear" x1="8" y1="29.0909" x2="30" y2="29.0909" gradientUnits="userSpaceOnUse">
            <stop stop-color="#DBDBDB"/>
            <stop offset="0.0637281" stop-color="#EBEBEB"/>
            <stop offset="0.178482" stop-color="#DADADA"/>
            <stop offset="0.48833" stop-color="#F6F6F6"/>
            <stop offset="0.757139" stop-color="#EFEFEF"/>
            <stop offset="1" stop-color="#DDDDDD"/>
        </linearGradient>
        <linearGradient id="paint2_linear" x1="8" y1="29.0909" x2="30" y2="29.0909" gradientUnits="userSpaceOnUse">
            <stop stop-color="#DBDBDB"/>
            <stop offset="0.0637281" stop-color="#EBEBEB"/>
            <stop offset="0.178482" stop-color="#DADADA"/>
            <stop offset="0.48833" stop-color="#F6F6F6"/>
            <stop offset="0.757139" stop-color="#EFEFEF"/>
            <stop offset="1" stop-color="#DDDDDD"/>
        </linearGradient>
        <linearGradient id="paint3_linear" x1="14" y1="9.11111" x2="25" y2="9.11111" gradientUnits="userSpaceOnUse">
            <stop stop-color="#1D1D1D"/>
            <stop offset="0.497299" stop-color="#585858"/>
            <stop offset="1" stop-color="#313131"/>
        </linearGradient>
        <linearGradient id="paint4_linear" x1="8" y1="53.1111" x2="30" y2="53.1111" gradientUnits="userSpaceOnUse">
            <stop stop-color="#1D1D1D"/>
            <stop offset="0.497299" stop-color="#585858"/>
            <stop offset="1" stop-color="#313131"/>
        </linearGradient>
        <filter id="filter0_dd" x="0" y="0" width="38" height="99" filterUnits="userSpaceOnUse" color-interpolation-filters="sRGB">
            <feFlood flood-opacity="0" result="BackgroundImageFix"/>
            <feColorMatrix in="SourceAlpha" type="matrix" values="0 0 0 0 0 0 0 0 0 0 0 0 0 0 0 0 0 0 127 0"/>
            <feOffset dy="2"/>
            <feGaussianBlur stdDeviation="2"/>
            <feColorMatrix type="matrix" values="0 0 0 0 0 0 0 0 0 0 0 0 0 0 0 0 0 0 0.06 0"/>
            <feBlend mode="normal" in2="BackgroundImageFix" result="effect1_dropShadow"/>
            <feColorMatrix in="SourceAlpha" type="matrix" values="0 0 0 0 0 0 0 0 0 0 0 0 0 0 0 0 0 0 127 0"/>
            <feOffset dy="4"/>
            <feGaussianBlur stdDeviation="4"/>
            <feColorMatrix type="matrix" values="0 0 0 0 0 0 0 0 0 0 0 0 0 0 0 0 0 0 0.06 0"/>
            <feBlend mode="normal" in2="effect1_dropShadow" result="effect2_dropShadow"/>
            <feBlend mode="normal" in="SourceGraphic" in2="effect2_dropShadow" result="shape"/>
        </filter>
    </defs>
</svg>
