<svg width="38" height="86" viewBox="0 0 38 86" fill="none" xmlns="http://www.w3.org/2000/svg">
    <g filter="url(#filter0_dd)">
        <g filter="url(#filter1_i)">
            <path d="M8 44V43L15 17H23L30 43V44H8Z" fill="url(#paint0_linear)"/>
        </g>
        <path d="M8.25 43.75V43.0331L15.1916 17.25H22.8084L29.75 43.0331V43.75H8.25Z" stroke="#E3E3E3" stroke-opacity="0.59" stroke-width="0.5"/>
        <path d="M8 43H30V86H8V43Z" fill="url(#paint1_linear)"/>
        <mask id="mask0" mask-type="alpha" maskUnits="userSpaceOnUse" x="8" y="1" width="22" height="85">
            <path d="M8 43L15 17L19 1L23 17L30 43V86H8V43Z" fill="url(#paint2_linear)"/>
        </mask>
        <g mask="url(#mask0)">
            <g filter="url(#filter2_f)">
                <path d="M14 48C14 45.2386 16.2386 43 19 43C21.7614 43 24 45.2386 24 48V86H14V48Z" fill="#F4F4F4"/>
            </g>
            <g filter="url(#filter3_if)">
                <path d="M8 46C8 44.3431 9.34315 43 11 43C12.6569 43 14 44.3431 14 46V86H8V46Z" fill="#E1E1E1"/>
            </g>
            <g filter="url(#filter4_if)">
                <path d="M24 46C24 44.3431 25.3431 43 27 43C28.6569 43 30 44.3431 30 46V86H24V46Z" fill="url(#paint3_linear)"/>
            </g>
            <path d="M16.6367 78.1406C17.8672 78.1406 18.6914 77.332 18.6914 76.1523C18.6914 75.0195 17.9102 74.2969 16.9453 74.2969C16.3711 74.2969 15.957 74.4922 15.707 74.8398H15.6406L15.7969 73.1914H18.3906V72.3633H15.0117L14.7031 75.6406H15.6172C15.8086 75.2695 16.1797 75.0469 16.6602 75.0469C17.2812 75.0469 17.7188 75.4961 17.7188 76.168C17.7188 76.8594 17.2812 77.3203 16.6328 77.3203C16.0586 77.3203 15.625 76.9727 15.5625 76.4453H14.6211C14.6641 77.4336 15.4727 78.1406 16.6367 78.1406ZM21.5998 78.1406C22.9475 78.1406 23.7483 77.0508 23.7483 75.1836C23.7483 73.3125 22.9358 72.2227 21.5998 72.2227C20.26 72.2227 19.4475 73.3125 19.4475 75.1758C19.4475 77.0469 20.2483 78.1406 21.5998 78.1406ZM21.5998 77.3242C20.885 77.3242 20.467 76.582 20.467 75.1758C20.467 73.7812 20.8928 73.043 21.5998 73.043C22.3069 73.043 22.7288 73.7773 22.7288 75.1758C22.7288 76.5859 22.3147 77.3242 21.5998 77.3242Z" fill="#86858A"/>
            <rect x="8" y="51" width="22" height="2" fill="#181818"/>
            <rect x="8" y="51" width="22" height="2" fill="url(#paint4_linear)"/>
            <path d="M15 17L18.0299 4.88057C18.2823 3.87062 19.7177 3.87062 19.9701 4.88057L23 17H15Z" fill="#181818"/>
            <path d="M15 17L18.0299 4.88057C18.2823 3.87062 19.7177 3.87062 19.9701 4.88057L23 17H15Z" fill="url(#paint5_linear)"/>
        </g>
    </g>
    <defs>
        <linearGradient id="paint0_linear" x1="8" y1="45.4318" x2="30" y2="45.4318" gradientUnits="userSpaceOnUse">
            <stop stop-color="#DBDBDB"/>
            <stop offset="0.0637281" stop-color="#EBEBEB"/>
            <stop offset="0.178482" stop-color="#DADADA"/>
            <stop offset="0.48833" stop-color="#F6F6F6"/>
            <stop offset="0.757139" stop-color="#EFEFEF"/>
            <stop offset="1" stop-color="#DDDDDD"/>
        </linearGradient>
        <linearGradient id="paint1_linear" x1="8" y1="45.4318" x2="30" y2="45.4318" gradientUnits="userSpaceOnUse">
            <stop stop-color="#DBDBDB"/>
            <stop offset="0.0637281" stop-color="#EBEBEB"/>
            <stop offset="0.178482" stop-color="#DADADA"/>
            <stop offset="0.48833" stop-color="#F6F6F6"/>
            <stop offset="0.757139" stop-color="#EFEFEF"/>
            <stop offset="1" stop-color="#DDDDDD"/>
        </linearGradient>
        <linearGradient id="paint2_linear" x1="8" y1="45.4318" x2="30" y2="45.4318" gradientUnits="userSpaceOnUse">
            <stop stop-color="#DBDBDB"/>
            <stop offset="0.0637281" stop-color="#EBEBEB"/>
            <stop offset="0.178482" stop-color="#DADADA"/>
            <stop offset="0.48833" stop-color="#F6F6F6"/>
            <stop offset="0.757139" stop-color="#EFEFEF"/>
            <stop offset="1" stop-color="#DDDDDD"/>
        </linearGradient>
        <linearGradient id="paint3_linear" x1="22.5" y1="64" x2="31" y2="64" gradientUnits="userSpaceOnUse">
            <stop stop-color="#E7E7E7"/>
            <stop offset="1" stop-color="#E7E7E7"/>
        </linearGradient>
        <linearGradient id="paint4_linear" x1="8" y1="52.1111" x2="30" y2="52.1111" gradientUnits="userSpaceOnUse">
            <stop stop-color="#1D1D1D"/>
            <stop offset="0.497299" stop-color="#585858"/>
            <stop offset="1" stop-color="#313131"/>
        </linearGradient>
        <linearGradient id="paint5_linear" x1="15" y1="9.88889" x2="23" y2="9.88889" gradientUnits="userSpaceOnUse">
            <stop stop-color="#1D1D1D"/>
            <stop offset="0.497299" stop-color="#585858"/>
            <stop offset="1" stop-color="#313131"/>
        </linearGradient>
        <filter id="filter0_dd" x="0" y="0.123108" width="38" height="97.8769" filterUnits="userSpaceOnUse" color-interpolation-filters="sRGB">
            <feFlood flood-opacity="0" result="BackgroundImageFix"/>
            <feColorMatrix in="SourceAlpha" type="matrix" values="0 0 0 0 0 0 0 0 0 0 0 0 0 0 0 0 0 0 127 0"/>
            <feOffset dy="4"/>
            <feGaussianBlur stdDeviation="4"/>
            <feColorMatrix type="matrix" values="0 0 0 0 0 0 0 0 0 0 0 0 0 0 0 0 0 0 0.06 0"/>
            <feBlend mode="normal" in2="BackgroundImageFix" result="effect1_dropShadow"/>
            <feColorMatrix in="SourceAlpha" type="matrix" values="0 0 0 0 0 0 0 0 0 0 0 0 0 0 0 0 0 0 127 0"/>
            <feOffset dy="2"/>
            <feGaussianBlur stdDeviation="2"/>
            <feColorMatrix type="matrix" values="0 0 0 0 0 0 0 0 0 0 0 0 0 0 0 0 0 0 0.06 0"/>
            <feBlend mode="normal" in2="effect1_dropShadow" result="effect2_dropShadow"/>
            <feBlend mode="normal" in="SourceGraphic" in2="effect2_dropShadow" result="shape"/>
        </filter>
        <filter id="filter1_i" x="8" y="17" width="23" height="28" filterUnits="userSpaceOnUse" color-interpolation-filters="sRGB">
            <feFlood flood-opacity="0" result="BackgroundImageFix"/>
            <feBlend mode="normal" in="SourceGraphic" in2="BackgroundImageFix" result="shape"/>
            <feColorMatrix in="SourceAlpha" type="matrix" values="0 0 0 0 0 0 0 0 0 0 0 0 0 0 0 0 0 0 127 0" result="hardAlpha"/>
            <feOffset dx="1" dy="1"/>
            <feGaussianBlur stdDeviation="0.5"/>
            <feComposite in2="hardAlpha" operator="arithmetic" k2="-1" k3="1"/>
            <feColorMatrix type="matrix" values="0 0 0 0 1 0 0 0 0 1 0 0 0 0 1 0 0 0 0.6 0"/>
            <feBlend mode="normal" in2="shape" result="effect1_innerShadow"/>
        </filter>
        <filter id="filter2_f" x="13" y="42" width="12" height="45" filterUnits="userSpaceOnUse" color-interpolation-filters="sRGB">
            <feFlood flood-opacity="0" result="BackgroundImageFix"/>
            <feBlend mode="normal" in="SourceGraphic" in2="BackgroundImageFix" result="shape"/>
            <feGaussianBlur stdDeviation="0.5" result="effect1_foregroundBlur"/>
        </filter>
        <filter id="filter3_if" x="7" y="42" width="8" height="45" filterUnits="userSpaceOnUse" color-interpolation-filters="sRGB">
            <feFlood flood-opacity="0" result="BackgroundImageFix"/>
            <feBlend mode="normal" in="SourceGraphic" in2="BackgroundImageFix" result="shape"/>
            <feColorMatrix in="SourceAlpha" type="matrix" values="0 0 0 0 0 0 0 0 0 0 0 0 0 0 0 0 0 0 127 0" result="hardAlpha"/>
            <feOffset dx="-1"/>
            <feComposite in2="hardAlpha" operator="arithmetic" k2="-1" k3="1"/>
            <feColorMatrix type="matrix" values="0 0 0 0 0 0 0 0 0 0 0 0 0 0 0 0 0 0 0.03 0"/>
            <feBlend mode="normal" in2="shape" result="effect1_innerShadow"/>
            <feGaussianBlur stdDeviation="0.5" result="effect2_foregroundBlur"/>
        </filter>
        <filter id="filter4_if" x="23" y="42" width="8" height="45" filterUnits="userSpaceOnUse" color-interpolation-filters="sRGB">
            <feFlood flood-opacity="0" result="BackgroundImageFix"/>
            <feBlend mode="normal" in="SourceGraphic" in2="BackgroundImageFix" result="shape"/>
            <feColorMatrix in="SourceAlpha" type="matrix" values="0 0 0 0 0 0 0 0 0 0 0 0 0 0 0 0 0 0 127 0" result="hardAlpha"/>
            <feOffset dx="-1"/>
            <feComposite in2="hardAlpha" operator="arithmetic" k2="-1" k3="1"/>
            <feColorMatrix type="matrix" values="0 0 0 0 0 0 0 0 0 0 0 0 0 0 0 0 0 0 0.03 0"/>
            <feBlend mode="normal" in2="shape" result="effect1_innerShadow"/>
            <feGaussianBlur stdDeviation="0.5" result="effect2_foregroundBlur"/>
        </filter>
    </defs>
</svg>
